<svg xmlns="http://www.w3.org/2000/svg" width="24" height="24" xml:space="preserve"><path d="M12 23c-.1 0-.2 0-.2-.1-.2-.1-.3-.3-.3-.4v-2.3c-6.1-.2-11-4.4-11-9.6C.5 5.3 5.7 1 12 1s11.5 4.3 11.5 9.6c0 3-1.6 5.7-4.4 7.5l-6.9 4.8c0 .1-.1.1-.2.1zm0-21C6.2 2 1.5 5.9 1.5 10.6c0 4.8 4.7 8.6 10.5 8.6.3 0 .5.2.5.5v1.8l6.1-4.2c2.5-1.7 3.9-4.1 3.9-6.7C22.5 5.9 17.8 2 12 2z"/><path d="M7.9 13.9H5.6c-.3 0-.5-.2-.5-.5V8c0-.3.2-.5.5-.5s.5.2.5.5v4.9h1.8c.3 0 .5.2.5.5s-.3.5-.5.5zM9.8 13.9c-.3 0-.5-.2-.5-.5V8c0-.3.2-.5.5-.5s.5.2.5.5v5.4c0 .3-.2.5-.5.5zM14.1 13.9c-.3 0-.5-.2-.5-.5V8c0-.3.2-.5.5-.5s.5.2.5.5v5.4c0 .3-.2.5-.5.5zM11.8 13.9c-.3 0-.5-.2-.5-.5V8c0-.3.2-.5.5-.5s.5.2.5.5v5.4c0 .3-.2.5-.5.5z"/><path d="M14.1 13.9c-.2 0-.4-.1-.5-.3l-2.3-5.4c-.1-.3 0-.5.3-.7.3-.1.5 0 .7.3l2.3 5.4c.1.3 0 .5-.3.7h-.2zM18.4 13.9h-2.3c-.3 0-.5-.2-.5-.5V8c0-.3.2-.5.5-.5h2.3c.3 0 .5.2.5.5s-.2.5-.5.5h-1.8v4.4h1.8c.3 0 .5.2.5.5s-.2.5-.5.5z"/><path d="M18.4 11.2h-2.3c-.3 0-.5-.2-.5-.5s.2-.5.5-.5h2.3c.3 0 .5.2.5.5s-.2.5-.5.5z"/></svg>